<svg width="900" height="620" viewBox="0 0 900 620" fill="none" xmlns="http://www.w3.org/2000/svg" role="img" aria-labelledby="title desc">
  <title id="title">Executive dashboard preview</title>
  <desc id="desc">A modern analytics dashboard with charts, metrics, and performance cards.</desc>
  <rect width="900" height="620" rx="28" fill="#0F766E"/>
  <rect x="54" y="56" width="792" height="508" rx="22" fill="#FBFAF7"/>
  <rect x="92" y="96" width="190" height="36" rx="10" fill="#151719"/>
  <rect x="698" y="96" width="108" height="36" rx="10" fill="#D95B43"/>
  <rect x="92" y="164" width="178" height="116" rx="18" fill="#EDF4F2"/>
  <rect x="294" y="164" width="178" height="116" rx="18" fill="#EDF4F2"/>
  <rect x="496" y="164" width="178" height="116" rx="18" fill="#EDF4F2"/>
  <rect x="92" y="324" width="378" height="190" rx="20" fill="#151719"/>
  <rect x="506" y="324" width="300" height="190" rx="20" fill="#EDF4F2"/>
  <path d="M130 464L190 416L248 438L316 374L430 430" stroke="#7BD2C8" stroke-width="15" stroke-linecap="round" stroke-linejoin="round"/>
  <path d="M550 464H764" stroke="#A7BCB9" stroke-width="18" stroke-linecap="round"/>
  <path d="M550 414H716" stroke="#D95B43" stroke-width="18" stroke-linecap="round"/>
  <path d="M550 368H748" stroke="#2D5F88" stroke-width="18" stroke-linecap="round"/>
  <circle cx="150" cy="220" r="20" fill="#0F766E"/>
  <circle cx="352" cy="220" r="20" fill="#B7832F"/>
  <circle cx="554" cy="220" r="20" fill="#D95B43"/>
</svg>
